# xmcd
#
# Track frame offsets: 
#        150
#        14477
#        27472
#        42415
#        52775
#        64742
#        76225
#        89467
#        101120
#        119152
#        134935
#        146427
#        164610
#        177320
#        188907
#        203665
#
# Disc length: 2927 seconds
#
# Revision: 3
# Processed by: cddbd v1.5.2PL0 Copyright (c) Steve Scherf et al.
# Submitted via: ExactAudioCopy v0.99pb5
#
DISCID=ed0b6d10
DTITLE=Various Artist - Die Mega Pop Box - CD 2
DYEAR=1998
DGENRE=
TTITLE0=Tony Christie - Is This The Way To Amarillo
TTITLE1=The Small Faces - Sha La La La Lee
TTITLE2=The Mamas and The Papas - Monday, Monday
TTITLE3=Louis Armstrong - What A Wonderful World
TTITLE4=Desmond Dekker and The Aces - You Can Get It If You Really Want
TTITLE5=Cher - Gypsys, Tramps and Thieves
TTITLE6=Daniel Boone - Beautiful Sunday
TTITLE7=Gilbert O'Sullivan - Get Down
TTITLE8=The Hollies - The Air That I Breathe
TTITLE9=Pilot - January
TTITLE10=Crystal Gayle - Don't It Make My Brown Eyes Blue
TTITLE11=Gerry Rafferty - Baker Street
TTITLE12=Dr. Hook - When You're In Love With A Beautiful Woman
TTITLE13=Uriah Heep - Easy Livin'
TTITLE14=Johnny Wakelin - In Zaire
TTITLE15=Barry McGuire - Eve Of Destruction
EXTD=
EXTT0=
EXTT1=
EXTT2=
EXTT3=
EXTT4=
EXTT5=
EXTT6=
EXTT7=
EXTT8=
EXTT9=
EXTT10=
EXTT11=
EXTT12=
EXTT13=
EXTT14=
EXTT15=
PLAYORDER=
